<?xml version="1.0" encoding="utf-8"?>
<!-- Generator: Adobe Illustrator 23.0.5, SVG Export Plug-In . SVG Version: 6.00 Build 0)  -->
<svg version="1.1" id="Bold" xmlns="http://www.w3.org/2000/svg" xmlns:xlink="http://www.w3.org/1999/xlink" x="0px" y="0px"
	 viewBox="0 0 288 288" style="enable-background:new 0 0 288 288;" xml:space="preserve">
<style type="text/css">
	.st0{fill:#FFA500;}
</style>
<path class="st0" d="M189.2,144L272,61.2c11.7-13.3,10.4-33.5-2.9-45.2C257,5.4,238.9,5.4,226.8,16L144,98.8l-83-83
	c-12.5-12.5-32.8-12.5-45.3,0S3.2,48.5,15.7,61l83,83L16,226.8c-13.2,11.8-14.3,32-2.5,45.2s32,14.3,45.2,2.5
	c0.9-0.8,1.7-1.6,2.5-2.5l82.8-82.8l82.7,82.8c12.5,12.5,32.8,12.5,45.3,0c12.5-12.5,12.5-32.8,0-45.3L189.2,144z"/>
</svg>
