<?xml version="1.0" encoding="utf-8"?>
<!-- Generator: Adobe Illustrator 23.0.5, SVG Export Plug-In . SVG Version: 6.00 Build 0)  -->
<svg version="1.1" id="Layer_1" xmlns="http://www.w3.org/2000/svg" xmlns:xlink="http://www.w3.org/1999/xlink" x="0px" y="0px"
	 viewBox="0 0 512 512" style="enable-background:new 0 0 512 512;" xml:space="preserve">
<style type="text/css">
	.st0{fill:#FFA500;}
</style>
<g id="_01_align_center">
	<path class="st0" d="M469.3,212.9v128.4h-128v128H42.7V64c0-11.8,9.6-21.3,21.3-21.3h280.5l25.8-28.9c4.6-5.1,9.7-9.7,15.2-13.8H64
		C28.7,0,0,28.7,0,64v448h392.8L512,392.8V170.2L469.3,212.9z M384,460.5V384h76.5L384,460.5z"/>
	<path class="st0" d="M271.6,252.2L433.9,70.7c7.4-8.3,20.2-9,28.5-1.6c0.3,0.2,0.5,0.5,0.8,0.8c7.9,7.8,7.9,20.6,0,28.5
		c0,0,0,0,0,0L291.8,269.7c10,11,17.6,24,22.2,38.1l179.2-179.2c24.5-24.5,24.5-64.3,0-88.8c-24.5-24.5-64.3-24.6-88.8-0.1
		c-0.8,0.8-1.6,1.7-2.4,2.6l-173.6,194C243.8,238.4,258.5,243.8,271.6,252.2z"/>
	<path class="st0" d="M213.3,277.3c-85.3,0-106.7,128-106.7,128h106.7c35.3,0,64-28.7,64-64S248.7,277.3,213.3,277.3z"/>
</g>
</svg>
