<?xml version="1.0" encoding="utf-8"?>
<!-- Generator: Adobe Illustrator 23.0.5, SVG Export Plug-In . SVG Version: 6.00 Build 0)  -->
<svg version="1.1" id="Layer_1" xmlns="http://www.w3.org/2000/svg" xmlns:xlink="http://www.w3.org/1999/xlink" x="0px" y="0px"
	 viewBox="0 0 30.5 30.5" style="enable-background:new 0 0 30.5 30.5;" xml:space="preserve">
<style type="text/css">
	.st0{fill:#393478;}
</style>
<path class="st0" d="M23.4,6.5h-1.9V4.6c0-2.4-2-4.4-4.4-4.4h-3.8c-2.4,0-4.4,2-4.4,4.4v1.9H7.1c-3.8,0-6.9,3.1-6.9,6.9v10
	c0,3.8,3.1,6.9,6.9,6.9h16.3c3.8,0,6.9-3.1,6.9-6.9v-10C30.3,9.6,27.2,6.5,23.4,6.5z M12.7,4.6C12.7,4.2,13,4,13.4,4h3.8
	c0.3,0,0.6,0.3,0.6,0.6v1.9h-5L12.7,4.6L12.7,4.6z M26.5,23.4c0,1.7-1.4,3.1-3.1,3.1H7.1c-1.7,0-3.1-1.4-3.1-3.1v-10
	c0-1.7,1.4-3.1,3.1-3.1h16.3c1.7,0,3.1,1.4,3.1,3.1V23.4z M20.9,18.4c0,1-0.8,1.9-1.9,1.9l0,0h-1.9v1.9c0,1-0.8,1.9-1.9,1.9
	s-1.9-0.8-1.9-1.9v-1.9h-1.9c-1,0-1.9-0.8-1.9-1.9s0.8-1.9,1.9-1.9h1.9v-1.9c0-1,0.8-1.9,1.9-1.9s1.9,0.8,1.9,1.9v1.9H19
	C20,16.5,20.9,17.3,20.9,18.4z"/>
</svg>
