<?xml version="1.0" encoding="utf-8"?>
<!-- Generator: Adobe Illustrator 23.0.5, SVG Export Plug-In . SVG Version: 6.00 Build 0)  -->
<svg version="1.1" id="Layer_1" xmlns="http://www.w3.org/2000/svg" xmlns:xlink="http://www.w3.org/1999/xlink" x="0px" y="0px"
	 viewBox="0 0 87.2 87.2" style="enable-background:new 0 0 87.2 87.2;" xml:space="preserve">
<style type="text/css">
	.st0{fill:#FFFFFF;}
</style>
<path class="st0" d="M0.9,36.5v32.1c0,9.8,8,17.8,17.8,17.8h49.9c9.8,0,17.8-8,17.8-17.8V36.5H0.9z M54.3,65h-7.1v7.1
	c0,2-1.6,3.6-3.6,3.6c-2,0-3.6-1.6-3.6-3.6V65h-7.1c-2,0-3.6-1.6-3.6-3.6c0-2,1.6-3.6,3.6-3.6H40v-7.1c0-2,1.6-3.6,3.6-3.6
	c2,0,3.6,1.6,3.6,3.6v7.1h7.1c2,0,3.6,1.6,3.6,3.6C57.8,63.4,56.2,65,54.3,65z M0.9,29.4v-3.6C0.9,16,8.8,8,18.7,8h3.6V4.4
	c0-2,1.6-3.6,3.6-3.6s3.6,1.6,3.6,3.6V8h28.5V4.4c0-2,1.6-3.6,3.6-3.6c2,0,3.6,1.6,3.6,3.6V8h3.6c9.8,0,17.8,8,17.8,17.8v3.6H0.9z"
	/>
</svg>
