<?xml version="1.0" encoding="utf-8"?>
<!-- Generator: Adobe Illustrator 23.0.5, SVG Export Plug-In . SVG Version: 6.00 Build 0)  -->
<svg version="1.1" id="Layer_1" xmlns="http://www.w3.org/2000/svg" xmlns:xlink="http://www.w3.org/1999/xlink" x="0px" y="0px"
	 viewBox="0 0 112 99" style="enable-background:new 0 0 112 99;" xml:space="preserve">
<style type="text/css">
	.st0{fill:#FFFFFF;}
	.st1{fill:#393578;}
</style>
<path class="st0" d="M83.5,58.1H5.8c-2.6,0-4.6-2.1-4.6-4.6v-6.5c0-2.6,2.1-4.6,4.6-4.6h77.7c2.6,0,4.6,2.1,4.6,4.6v6.5
	C88.1,56.1,86,58.1,83.5,58.1z"/>
<path class="st0" d="M83.5,25.4H5.8c-2.6,0-4.6-2.1-4.6-4.6v-6.5c0-2.6,2.1-4.6,4.6-4.6h77.7c2.6,0,4.6,2.1,4.6,4.6v6.5
	C88.1,23.3,86,25.4,83.5,25.4z"/>
<path class="st0" d="M48.1,91.2H9c-4.3,0-7.8-3.5-7.8-7.8c0-4.3,3.5-7.8,7.8-7.8h39.1c4.3,0,7.8,3.5,7.8,7.8
	C55.9,87.7,52.4,91.2,48.1,91.2z"/>
<circle class="st1" cx="102.4" cy="17.6" r="8.4"/>
</svg>
