<?xml version="1.0" encoding="utf-8"?>
<!-- Generator: Adobe Illustrator 23.0.5, SVG Export Plug-In . SVG Version: 6.00 Build 0)  -->
<svg version="1.1" id="Layer_1" xmlns="http://www.w3.org/2000/svg" xmlns:xlink="http://www.w3.org/1999/xlink" x="0px" y="0px"
	 viewBox="0 0 34.5 55" style="enable-background:new 0 0 34.5 55;" xml:space="preserve">
<style type="text/css">
	.st0{clip-path:url(#SVGID_2_);}
	.st1{fill-rule:evenodd;clip-rule:evenodd;fill:#393478;}
	.st2{fill:#FFFFFF;}
</style>
<g>
	<g>
		<defs>
			<rect id="SVGID_1_" y="0" width="33.7" height="44.2"/>
		</defs>
		<clipPath id="SVGID_2_">
			<use xlink:href="#SVGID_1_"  style="overflow:visible;"/>
		</clipPath>
		<g class="st0">
			<path class="st1" d="M8.4,29.4c-0.2,2.7-0.3,14.8-3.9,14.7c-4,0-4.6-15.8-4.5-18.2C0.1,21.1,0.3,2.5,6,0.6
				C11.3-1.2,13.1,8,14.2,11c0.5,1.4,1.6,4.3,3,5.3C20.5,14.8,27.9-4.3,32.4,1c1.9,2.3,1.2,11.5,1,14.7c-0.3-1.9-1.5-9.7-2.8-12.1
				c-0.1,0.2-0.2,0.3-0.4,0.6C27.5,9.4,25.4,20.3,18.5,22c-6.6,1.6-9.2-7-11-12.5C6.4,14.8,6.1,22.5,6,26c-0.1,3.8-0.8,8.9-0.7,13
				C6.6,36,8,31,8.4,29.4z M30.4,3.1C30.3,3,30.3,3,30.2,2.9C30.2,3,30.3,3,30.4,3.1z M4,41.4C4,41.4,4,41.5,4,41.4
				C4,41.5,4,41.4,4,41.4z"/>
		</g>
	</g>
</g>
<path class="st2" d="M27,22.1c1.2,0,2.3,0.2,3.3,0.5s1.8,0.8,2.3,1.5c0.6,0.6,0.8,1.4,0.8,2.2c0,1-0.3,1.8-0.9,2.4
	c-0.6,0.6-1.3,0.9-2.2,0.9c-0.4,0-0.6-0.1-0.6-0.3c0-0.1,0.1-0.2,0.2-0.5c0.2-0.3,0.3-0.6,0.4-0.9s0.2-0.8,0.2-1.2
	c0-0.9-0.3-1.6-1-2.2C29,24,28.1,23.7,27,23.7c-1.4,0-2.6,0.4-3.5,1.3s-1.5,2-1.9,3.4S21,31.2,21,32.8c0,1.6,0.2,3.1,0.7,4.4
	c0.5,1.3,1.2,2.4,2.2,3.1c0.9,0.8,2,1.1,3.3,1.1c1.2,0,2.3-0.2,3.2-0.7c0.9-0.5,1.6-1.1,2.2-1.9c0.1-0.1,0.1-0.1,0.2-0.1
	c0.2,0,0.4,0.1,0.6,0.3c0.2,0.2,0.3,0.3,0.3,0.5c0,0.1,0,0.1-0.1,0.2c-1.6,2.4-3.9,3.6-6.7,3.6c-2,0-3.7-0.5-5-1.4
	c-1.4-0.9-2.4-2.2-3.1-3.8s-1-3.4-1-5.4s0.3-3.8,1-5.4s1.7-2.9,3.1-3.8C23.3,22.6,25,22.1,27,22.1z"/>
</svg>
